<svg xmlns="http://www.w3.org/2000/svg" xmlns:xlink="http://www.w3.org/1999/xlink" width="64" zoomAndPan="magnify" viewBox="0 0 48 48" height="64" preserveAspectRatio="xMidYMid meet" version="1.2"><defs><clipPath id="0f4ec2a5da"><path d="M 14.597656 14.105469 L 33.699219 14.105469 L 33.699219 33 L 14.597656 33 Z M 14.597656 14.105469 "/></clipPath><clipPath id="1688557e25"><path d="M 0.488281 0 L 47.507812 0 L 47.507812 47.019531 L 0.488281 47.019531 Z M 0.488281 0 "/></clipPath></defs><g id="d37af6d4df"><g clip-rule="nonzero" clip-path="url(#0f4ec2a5da)"><path style=" stroke:none;fill-rule:nonzero;fill:#ffffff;fill-opacity:1;" d="M 33.398438 23.507812 C 33.398438 28.699219 29.191406 32.910156 23.996094 32.910156 C 18.804688 32.910156 14.597656 28.699219 14.597656 23.507812 C 14.597656 18.316406 18.804688 14.105469 23.996094 14.105469 C 29.191406 14.105469 33.398438 18.316406 33.398438 23.507812 "/></g><path style=" stroke:none;fill-rule:nonzero;fill:#ffffff;fill-opacity:1;" d="M 21.945312 27.066406 L 21.945312 28.019531 L 21.117188 27.066406 Z M 21.945312 27.066406 "/><path style=" stroke:none;fill-rule:nonzero;fill:#ffffff;fill-opacity:1;" d="M 24.742188 18.242188 L 24.742188 18.820312 L 23.25 18.820312 L 23.25 18.242188 L 24.742188 18.242188 "/><path style=" stroke:none;fill-rule:nonzero;fill:#ffffff;fill-opacity:1;" d="M 25.640625 18.992188 L 25.640625 19.417969 C 25.640625 19.417969 25.640625 19.421875 25.640625 19.421875 L 25.640625 20.027344 L 22.355469 20.027344 L 22.355469 19.421875 C 22.355469 19.421875 22.355469 19.417969 22.355469 19.417969 L 22.355469 18.992188 L 25.640625 18.992188 "/><path style=" stroke:none;fill-rule:nonzero;fill:#ffffff;fill-opacity:1;" d="M 27.5625 19.503906 L 27.5625 28.773438 L 20.433594 28.773438 L 20.433594 19.503906 L 20.867188 19.503906 L 20.867188 25.296875 C 20.867188 25.410156 20.863281 25.574219 20.859375 25.777344 C 20.851562 26.101562 20.84375 26.511719 20.84375 26.972656 C 20.839844 26.996094 20.847656 27.019531 20.863281 27.035156 L 21.964844 28.304688 C 21.984375 28.324219 22.007812 28.335938 22.03125 28.335938 L 27.015625 28.335938 C 27.0625 28.335938 27.101562 28.296875 27.101562 28.25 L 27.128906 19.503906 L 27.5625 19.503906 "/><path style=" stroke:none;fill-rule:nonzero;fill:#ffffff;fill-opacity:1;" d="M 22.765625 23.085938 L 22.765625 22.347656 C 22.765625 22.300781 22.726562 22.261719 22.679688 22.261719 L 21.941406 22.261719 C 21.894531 22.261719 21.855469 22.300781 21.855469 22.347656 L 21.855469 23.085938 C 21.855469 23.132812 21.894531 23.171875 21.941406 23.171875 L 22.679688 23.171875 C 22.726562 23.171875 22.765625 23.132812 22.765625 23.085938 Z M 22.765625 24.582031 L 22.765625 23.84375 C 22.765625 23.796875 22.726562 23.757812 22.679688 23.757812 L 21.941406 23.757812 C 21.894531 23.757812 21.855469 23.796875 21.855469 23.84375 L 21.855469 24.582031 C 21.855469 24.628906 21.894531 24.667969 21.941406 24.667969 L 22.679688 24.667969 C 22.726562 24.667969 22.765625 24.628906 22.765625 24.582031 Z M 22.765625 26.078125 L 22.765625 25.339844 C 22.765625 25.292969 22.726562 25.253906 22.679688 25.253906 L 21.941406 25.253906 C 21.894531 25.253906 21.855469 25.292969 21.855469 25.339844 L 21.855469 26.078125 C 21.855469 26.125 21.894531 26.164062 21.941406 26.164062 L 22.679688 26.164062 C 22.726562 26.164062 22.765625 26.125 22.765625 26.078125 Z M 24.722656 21.425781 C 24.722656 21.375 24.683594 21.339844 24.636719 21.339844 L 23.359375 21.339844 C 23.3125 21.339844 23.273438 21.375 23.273438 21.425781 C 23.273438 21.472656 23.3125 21.511719 23.359375 21.511719 L 24.636719 21.511719 C 24.683594 21.511719 24.722656 21.472656 24.722656 21.425781 Z M 24.980469 21.019531 C 24.980469 20.96875 24.941406 20.929688 24.894531 20.929688 L 23.101562 20.929688 C 23.050781 20.929688 23.015625 20.96875 23.015625 21.019531 C 23.015625 21.066406 23.050781 21.105469 23.101562 21.105469 L 24.894531 21.105469 C 24.941406 21.105469 24.980469 21.066406 24.980469 21.019531 Z M 26.140625 25.910156 C 26.140625 25.863281 26.101562 25.824219 26.054688 25.824219 L 23.285156 25.824219 C 23.238281 25.824219 23.199219 25.863281 23.199219 25.910156 C 23.199219 25.960938 23.238281 26 23.285156 26 L 26.054688 26 C 26.101562 26 26.140625 25.960938 26.140625 25.910156 Z M 26.140625 25.503906 C 26.140625 25.457031 26.101562 25.417969 26.054688 25.417969 L 23.285156 25.417969 C 23.238281 25.417969 23.199219 25.457031 23.199219 25.503906 C 23.199219 25.554688 23.238281 25.589844 23.285156 25.589844 L 26.054688 25.589844 C 26.101562 25.589844 26.140625 25.554688 26.140625 25.503906 Z M 26.140625 24.417969 C 26.140625 24.367188 26.101562 24.328125 26.054688 24.328125 L 23.285156 24.328125 C 23.238281 24.328125 23.199219 24.367188 23.199219 24.417969 C 23.199219 24.464844 23.238281 24.503906 23.285156 24.503906 L 26.054688 24.503906 C 26.101562 24.503906 26.140625 24.464844 26.140625 24.417969 Z M 26.140625 24.007812 C 26.140625 23.960938 26.101562 23.921875 26.054688 23.921875 L 23.285156 23.921875 C 23.238281 23.921875 23.199219 23.960938 23.199219 24.007812 C 23.199219 24.058594 23.238281 24.097656 23.285156 24.097656 L 26.054688 24.097656 C 26.101562 24.097656 26.140625 24.058594 26.140625 24.007812 Z M 26.140625 22.921875 C 26.140625 22.871094 26.101562 22.835938 26.054688 22.835938 L 23.285156 22.835938 C 23.238281 22.835938 23.199219 22.871094 23.199219 22.921875 C 23.199219 22.96875 23.238281 23.007812 23.285156 23.007812 L 26.054688 23.007812 C 26.101562 23.007812 26.140625 22.96875 26.140625 22.921875 Z M 26.140625 22.515625 C 26.140625 22.464844 26.101562 22.425781 26.054688 22.425781 L 23.285156 22.425781 C 23.238281 22.425781 23.199219 22.464844 23.199219 22.515625 C 23.199219 22.5625 23.238281 22.601562 23.285156 22.601562 L 26.054688 22.601562 C 26.101562 22.601562 26.140625 22.5625 26.140625 22.515625 Z M 26.953125 19.507812 L 26.929688 28.164062 L 22.121094 28.164062 L 22.121094 26.980469 C 22.121094 26.933594 22.082031 26.894531 22.03125 26.894531 L 21.015625 26.894531 C 21.015625 26.464844 21.023438 26.089844 21.03125 25.78125 C 21.035156 25.574219 21.039062 25.414062 21.039062 25.296875 L 21.039062 19.507812 L 22.183594 19.507812 L 22.183594 20.113281 C 22.183594 20.164062 22.222656 20.199219 22.269531 20.199219 L 25.726562 20.199219 C 25.773438 20.199219 25.8125 20.164062 25.8125 20.113281 L 25.8125 19.507812 L 26.953125 19.507812 "/><path style=" stroke:none;fill-rule:nonzero;fill:#ffffff;fill-opacity:1;" d="M 22.59375 25.425781 L 22.59375 25.992188 L 22.027344 25.992188 L 22.027344 25.425781 L 22.59375 25.425781 "/><path style=" stroke:none;fill-rule:nonzero;fill:#ffffff;fill-opacity:1;" d="M 22.59375 23.929688 L 22.59375 24.496094 L 22.027344 24.496094 L 22.027344 23.929688 L 22.59375 23.929688 "/><path style=" stroke:none;fill-rule:nonzero;fill:#ffffff;fill-opacity:1;" d="M 22.59375 22.433594 L 22.59375 23 L 22.027344 23 L 22.027344 22.433594 L 22.59375 22.433594 "/><path style=" stroke:none;fill-rule:nonzero;fill:#d9f4cd;fill-opacity:1;" d="M 20.664062 10.539062 L 27.335938 10.539062 C 27.417969 10.539062 27.488281 10.570312 27.546875 10.628906 C 27.605469 10.6875 27.636719 10.757812 27.636719 10.839844 L 27.636719 13.0625 C 27.636719 13.148438 27.605469 13.21875 27.546875 13.277344 C 27.488281 13.335938 27.417969 13.363281 27.335938 13.363281 L 20.664062 13.363281 C 20.582031 13.363281 20.511719 13.335938 20.453125 13.277344 C 20.394531 13.21875 20.363281 13.148438 20.363281 13.0625 L 20.363281 10.839844 C 20.363281 10.757812 20.394531 10.6875 20.453125 10.628906 C 20.511719 10.570312 20.582031 10.539062 20.664062 10.539062 Z M 20.664062 10.539062 "/><path style=" stroke:none;fill-rule:nonzero;fill:#d9f4cd;fill-opacity:1;" d="M 30.917969 12.761719 L 29.257812 12.761719 L 29.257812 13.0625 C 29.257812 13.320312 29.210938 13.5625 29.113281 13.800781 C 29.015625 14.035156 28.875 14.242188 28.695312 14.421875 C 28.515625 14.605469 28.308594 14.742188 28.070312 14.839844 C 27.835938 14.9375 27.589844 14.988281 27.335938 14.988281 L 20.664062 14.988281 C 20.410156 14.988281 20.164062 14.9375 19.929688 14.839844 C 19.691406 14.742188 19.484375 14.605469 19.304688 14.421875 C 19.125 14.242188 18.984375 14.035156 18.886719 13.800781 C 18.789062 13.5625 18.742188 13.320312 18.742188 13.0625 L 18.742188 12.761719 L 17.082031 12.761719 C 16.761719 12.730469 16.453125 12.761719 16.144531 12.855469 C 15.839844 12.949219 15.5625 13.09375 15.316406 13.296875 C 15.066406 13.5 14.867188 13.738281 14.714844 14.019531 C 14.5625 14.300781 14.46875 14.597656 14.433594 14.917969 L 14.433594 32.707031 C 14.46875 33.023438 14.5625 33.320312 14.714844 33.601562 C 14.867188 33.882812 15.066406 34.125 15.316406 34.324219 C 15.5625 34.527344 15.839844 34.675781 16.144531 34.765625 C 16.453125 34.859375 16.761719 34.890625 17.082031 34.859375 L 30.917969 34.859375 C 31.238281 34.890625 31.546875 34.859375 31.855469 34.765625 C 32.160156 34.675781 32.4375 34.527344 32.683594 34.324219 C 32.933594 34.125 33.132812 33.882812 33.285156 33.601562 C 33.4375 33.320312 33.53125 33.023438 33.566406 32.707031 L 33.566406 14.917969 C 33.53125 14.597656 33.4375 14.300781 33.285156 14.019531 C 33.132812 13.738281 32.933594 13.5 32.683594 13.296875 C 32.4375 13.09375 32.160156 12.949219 31.855469 12.855469 C 31.546875 12.761719 31.238281 12.730469 30.917969 12.761719 Z M 18.8125 30.480469 C 18.640625 30.480469 18.472656 30.449219 18.316406 30.382812 C 18.15625 30.316406 18.015625 30.222656 17.894531 30.101562 C 17.773438 29.980469 17.679688 29.839844 17.613281 29.679688 C 17.546875 29.523438 17.515625 29.355469 17.515625 29.183594 C 17.515625 29.011719 17.546875 28.847656 17.613281 28.6875 C 17.679688 28.53125 17.773438 28.390625 17.894531 28.269531 C 18.015625 28.144531 18.15625 28.050781 18.316406 27.988281 C 18.472656 27.921875 18.640625 27.886719 18.8125 27.886719 C 18.984375 27.886719 19.148438 27.921875 19.308594 27.988281 C 19.46875 28.050781 19.605469 28.144531 19.730469 28.269531 C 19.851562 28.390625 19.945312 28.53125 20.011719 28.6875 C 20.074219 28.847656 20.109375 29.011719 20.109375 29.183594 C 20.109375 29.355469 20.074219 29.523438 20.011719 29.679688 C 19.945312 29.839844 19.851562 29.980469 19.730469 30.101562 C 19.605469 30.222656 19.46875 30.316406 19.308594 30.382812 C 19.148438 30.449219 18.984375 30.480469 18.8125 30.480469 Z M 18.8125 25.617188 C 18.640625 25.617188 18.472656 25.585938 18.316406 25.519531 C 18.15625 25.453125 18.015625 25.359375 17.894531 25.238281 C 17.773438 25.117188 17.679688 24.976562 17.613281 24.816406 C 17.546875 24.660156 17.515625 24.492188 17.515625 24.320312 C 17.515625 24.148438 17.546875 23.984375 17.613281 23.824219 C 17.679688 23.664062 17.773438 23.523438 17.894531 23.402344 C 18.015625 23.28125 18.15625 23.1875 18.316406 23.121094 C 18.472656 23.058594 18.640625 23.023438 18.8125 23.023438 C 18.984375 23.023438 19.148438 23.058594 19.308594 23.121094 C 19.46875 23.1875 19.605469 23.28125 19.730469 23.402344 C 19.851562 23.523438 19.945312 23.664062 20.011719 23.824219 C 20.074219 23.984375 20.109375 24.148438 20.109375 24.320312 C 20.109375 24.492188 20.074219 24.660156 20.011719 24.816406 C 19.945312 24.976562 19.851562 25.117188 19.730469 25.238281 C 19.605469 25.359375 19.46875 25.453125 19.308594 25.519531 C 19.148438 25.585938 18.984375 25.617188 18.8125 25.617188 Z M 18.8125 20.753906 C 18.640625 20.753906 18.472656 20.722656 18.316406 20.65625 C 18.15625 20.589844 18.015625 20.496094 17.894531 20.375 C 17.773438 20.253906 17.679688 20.113281 17.613281 19.953125 C 17.546875 19.792969 17.515625 19.628906 17.515625 19.457031 C 17.515625 19.285156 17.546875 19.121094 17.613281 18.960938 C 17.679688 18.800781 17.773438 18.660156 17.894531 18.539062 C 18.015625 18.417969 18.15625 18.324219 18.316406 18.257812 C 18.472656 18.191406 18.640625 18.160156 18.8125 18.160156 C 18.984375 18.160156 19.148438 18.191406 19.308594 18.257812 C 19.46875 18.324219 19.605469 18.417969 19.730469 18.539062 C 19.851562 18.660156 19.945312 18.800781 20.011719 18.960938 C 20.074219 19.121094 20.109375 19.285156 20.109375 19.457031 C 20.109375 19.628906 20.074219 19.792969 20.011719 19.953125 C 19.945312 20.113281 19.851562 20.253906 19.730469 20.375 C 19.605469 20.496094 19.46875 20.589844 19.308594 20.65625 C 19.148438 20.722656 18.984375 20.753906 18.8125 20.753906 Z M 30.484375 29.996094 L 22.378906 29.996094 C 22.15625 29.996094 21.964844 29.917969 21.804688 29.757812 C 21.648438 29.601562 21.566406 29.410156 21.566406 29.183594 C 21.566406 28.960938 21.648438 28.769531 21.804688 28.613281 C 21.964844 28.453125 22.15625 28.375 22.378906 28.375 L 30.484375 28.375 C 30.710938 28.375 30.902344 28.453125 31.058594 28.613281 C 31.21875 28.769531 31.296875 28.960938 31.296875 29.183594 C 31.296875 29.410156 31.21875 29.601562 31.058594 29.757812 C 30.902344 29.917969 30.710938 29.996094 30.484375 29.996094 Z M 30.484375 25.132812 L 22.378906 25.132812 C 22.15625 25.132812 21.964844 25.050781 21.804688 24.894531 C 21.648438 24.734375 21.566406 24.542969 21.566406 24.320312 C 21.566406 24.097656 21.648438 23.90625 21.804688 23.746094 C 21.964844 23.589844 22.15625 23.511719 22.378906 23.511719 L 30.484375 23.511719 C 30.710938 23.511719 30.902344 23.589844 31.058594 23.746094 C 31.21875 23.90625 31.296875 24.097656 31.296875 24.320312 C 31.296875 24.542969 31.21875 24.734375 31.058594 24.894531 C 30.902344 25.050781 30.710938 25.132812 30.484375 25.132812 Z M 30.484375 20.265625 L 22.378906 20.265625 C 22.15625 20.265625 21.964844 20.1875 21.804688 20.03125 C 21.648438 19.871094 21.566406 19.679688 21.566406 19.457031 C 21.566406 19.234375 21.648438 19.042969 21.804688 18.882812 C 21.964844 18.726562 22.15625 18.644531 22.378906 18.644531 L 30.484375 18.644531 C 30.710938 18.644531 30.902344 18.726562 31.058594 18.882812 C 31.21875 19.042969 31.296875 19.234375 31.296875 19.457031 C 31.296875 19.679688 31.21875 19.871094 31.058594 20.03125 C 30.902344 20.1875 30.710938 20.265625 30.484375 20.265625 Z M 30.484375 20.265625 "/><path style=" stroke:none;fill-rule:nonzero;fill:#d9f4cd;fill-opacity:1;" d="M 24 1.621094 C 23.28125 1.621094 22.566406 1.65625 21.855469 1.726562 C 21.140625 1.796875 20.433594 1.902344 19.730469 2.042969 C 19.027344 2.183594 18.332031 2.355469 17.644531 2.5625 C 16.960938 2.773438 16.285156 3.011719 15.625 3.289062 C 14.960938 3.5625 14.3125 3.867188 13.683594 4.207031 C 13.050781 4.542969 12.433594 4.910156 11.839844 5.308594 C 11.242188 5.707031 10.667969 6.136719 10.113281 6.589844 C 9.558594 7.042969 9.027344 7.527344 8.523438 8.03125 C 8.015625 8.539062 7.535156 9.070312 7.078125 9.625 C 6.625 10.179688 6.199219 10.753906 5.800781 11.347656 C 5.402344 11.945312 5.035156 12.558594 4.695312 13.191406 C 4.359375 13.824219 4.050781 14.472656 3.777344 15.132812 C 3.503906 15.796875 3.261719 16.46875 3.054688 17.15625 C 2.84375 17.84375 2.671875 18.535156 2.53125 19.238281 C 2.390625 19.941406 2.285156 20.652344 2.214844 21.363281 C 2.144531 22.078125 2.109375 22.792969 2.109375 23.511719 C 2.109375 24.226562 2.144531 24.941406 2.214844 25.65625 C 2.285156 26.367188 2.390625 27.078125 2.53125 27.78125 C 2.671875 28.484375 2.84375 29.179688 3.054688 29.863281 C 3.261719 30.550781 3.503906 31.222656 3.777344 31.886719 C 4.050781 32.550781 4.359375 33.195312 4.695312 33.828125 C 5.035156 34.460938 5.402344 35.074219 5.800781 35.671875 C 6.199219 36.265625 6.625 36.84375 7.078125 37.394531 C 7.535156 37.949219 8.015625 38.480469 8.523438 38.988281 C 9.027344 39.496094 9.558594 39.976562 10.113281 40.429688 C 10.667969 40.886719 11.242188 41.3125 11.839844 41.710938 C 12.433594 42.109375 13.050781 42.476562 13.683594 42.8125 C 14.3125 43.152344 14.960938 43.457031 15.625 43.734375 C 16.285156 44.007812 16.960938 44.25 17.644531 44.457031 C 18.332031 44.664062 19.027344 44.839844 19.730469 44.976562 C 20.433594 45.117188 21.140625 45.222656 21.855469 45.292969 C 22.566406 45.363281 23.28125 45.398438 24 45.398438 C 24.71875 45.398438 25.433594 45.363281 26.144531 45.292969 C 26.859375 45.222656 27.566406 45.117188 28.269531 44.976562 C 28.972656 44.839844 29.667969 44.664062 30.355469 44.457031 C 31.039062 44.25 31.714844 44.007812 32.375 43.734375 C 33.039062 43.457031 33.6875 43.152344 34.316406 42.8125 C 34.949219 42.476562 35.566406 42.109375 36.160156 41.710938 C 36.757812 41.3125 37.332031 40.886719 37.886719 40.429688 C 38.441406 39.976562 38.972656 39.496094 39.476562 38.988281 C 39.984375 38.480469 40.464844 37.949219 40.921875 37.394531 C 41.375 36.84375 41.800781 36.265625 42.199219 35.671875 C 42.597656 35.074219 42.964844 34.460938 43.304688 33.828125 C 43.640625 33.195312 43.949219 32.550781 44.222656 31.886719 C 44.496094 31.222656 44.738281 30.550781 44.945312 29.863281 C 45.15625 29.179688 45.328125 28.484375 45.46875 27.78125 C 45.609375 27.078125 45.714844 26.367188 45.785156 25.65625 C 45.855469 24.941406 45.890625 24.226562 45.890625 23.511719 C 45.886719 22.792969 45.851562 22.078125 45.78125 21.363281 C 45.710938 20.652344 45.605469 19.945312 45.464844 19.242188 C 45.328125 18.539062 45.152344 17.84375 44.945312 17.15625 C 44.734375 16.472656 44.496094 15.796875 44.21875 15.136719 C 43.945312 14.472656 43.640625 13.824219 43.300781 13.195312 C 42.964844 12.5625 42.59375 11.949219 42.195312 11.351562 C 41.796875 10.753906 41.371094 10.179688 40.917969 9.625 C 40.460938 9.074219 39.980469 8.542969 39.476562 8.035156 C 38.96875 7.527344 38.4375 7.046875 37.882812 6.59375 C 37.328125 6.136719 36.753906 5.710938 36.160156 5.3125 C 35.5625 4.914062 34.949219 4.546875 34.316406 4.207031 C 33.683594 3.871094 33.039062 3.566406 32.375 3.289062 C 31.710938 3.015625 31.039062 2.773438 30.351562 2.566406 C 29.667969 2.359375 28.972656 2.183594 28.269531 2.042969 C 27.566406 1.902344 26.859375 1.796875 26.144531 1.726562 C 25.433594 1.65625 24.71875 1.621094 24 1.621094 Z M 35.1875 32.707031 C 35.171875 32.96875 35.125 33.226562 35.058594 33.484375 C 34.988281 33.738281 34.898438 33.984375 34.78125 34.222656 C 34.664062 34.457031 34.527344 34.683594 34.367188 34.894531 C 34.207031 35.101562 34.027344 35.296875 33.828125 35.46875 C 33.632812 35.644531 33.417969 35.800781 33.191406 35.933594 C 32.960938 36.066406 32.722656 36.175781 32.472656 36.261719 C 32.222656 36.351562 31.96875 36.410156 31.707031 36.449219 C 31.445312 36.484375 31.183594 36.496094 30.917969 36.480469 L 17.082031 36.480469 C 16.816406 36.496094 16.554688 36.484375 16.292969 36.449219 C 16.03125 36.410156 15.777344 36.351562 15.527344 36.261719 C 15.277344 36.175781 15.039062 36.066406 14.808594 35.933594 C 14.582031 35.800781 14.367188 35.644531 14.171875 35.46875 C 13.972656 35.296875 13.792969 35.101562 13.632812 34.894531 C 13.472656 34.683594 13.335938 34.457031 13.21875 34.222656 C 13.101562 33.984375 13.011719 33.738281 12.941406 33.484375 C 12.875 33.226562 12.828125 32.96875 12.8125 32.707031 L 12.8125 14.917969 C 12.828125 14.652344 12.875 14.394531 12.941406 14.136719 C 13.011719 13.882812 13.101562 13.636719 13.21875 13.398438 C 13.335938 13.164062 13.472656 12.9375 13.632812 12.730469 C 13.792969 12.519531 13.972656 12.328125 14.171875 12.152344 C 14.367188 11.976562 14.582031 11.824219 14.808594 11.6875 C 15.039062 11.554688 15.277344 11.445312 15.527344 11.359375 C 15.777344 11.273438 16.03125 11.210938 16.292969 11.171875 C 16.554688 11.136719 16.816406 11.125 17.082031 11.140625 L 18.742188 11.140625 L 18.742188 10.839844 C 18.742188 10.585938 18.789062 10.339844 18.886719 10.105469 C 18.984375 9.871094 19.125 9.660156 19.304688 9.480469 C 19.484375 9.300781 19.691406 9.160156 19.929688 9.0625 C 20.164062 8.964844 20.410156 8.917969 20.664062 8.917969 L 27.335938 8.917969 C 27.589844 8.917969 27.835938 8.964844 28.070312 9.0625 C 28.308594 9.160156 28.515625 9.300781 28.695312 9.480469 C 28.875 9.660156 29.015625 9.871094 29.113281 10.105469 C 29.210938 10.339844 29.257812 10.585938 29.257812 10.839844 L 29.257812 11.140625 L 30.917969 11.140625 C 31.183594 11.125 31.445312 11.136719 31.707031 11.171875 C 31.96875 11.210938 32.222656 11.273438 32.472656 11.359375 C 32.722656 11.445312 32.960938 11.554688 33.191406 11.6875 C 33.417969 11.824219 33.632812 11.976562 33.828125 12.152344 C 34.027344 12.328125 34.207031 12.519531 34.367188 12.730469 C 34.527344 12.9375 34.664062 13.164062 34.78125 13.398438 C 34.898438 13.636719 34.988281 13.882812 35.058594 14.136719 C 35.125 14.394531 35.171875 14.652344 35.1875 14.917969 Z M 35.1875 32.707031 "/><g clip-rule="nonzero" clip-path="url(#1688557e25)"><path style=" stroke:none;fill-rule:nonzero;fill:#4ca626;fill-opacity:1;" d="M 24 0 C 23.230469 0 22.460938 0.0390625 21.695312 0.113281 C 20.929688 0.1875 20.167969 0.300781 19.414062 0.453125 C 18.65625 0.601562 17.914062 0.789062 17.175781 1.011719 C 16.4375 1.234375 15.714844 1.496094 15.003906 1.789062 C 14.292969 2.085938 13.597656 2.414062 12.917969 2.777344 C 12.238281 3.140625 11.578125 3.535156 10.9375 3.960938 C 10.296875 4.390625 9.679688 4.847656 9.085938 5.335938 C 8.488281 5.824219 7.921875 6.339844 7.375 6.886719 C 6.832031 7.429688 6.316406 8 5.828125 8.59375 C 5.335938 9.191406 4.878906 9.808594 4.453125 10.449219 C 4.023438 11.089844 3.628906 11.75 3.265625 12.425781 C 2.902344 13.105469 2.574219 13.800781 2.28125 14.511719 C 1.984375 15.226562 1.726562 15.949219 1.503906 16.6875 C 1.277344 17.421875 1.089844 18.167969 0.941406 18.921875 C 0.792969 19.679688 0.679688 20.441406 0.601562 21.207031 C 0.527344 21.972656 0.488281 22.738281 0.488281 23.511719 C 0.488281 24.28125 0.527344 25.046875 0.601562 25.816406 C 0.679688 26.582031 0.792969 27.339844 0.941406 28.097656 C 1.089844 28.851562 1.277344 29.597656 1.503906 30.335938 C 1.726562 31.070312 1.984375 31.796875 2.28125 32.507812 C 2.574219 33.21875 2.902344 33.914062 3.265625 34.59375 C 3.628906 35.273438 4.023438 35.929688 4.453125 36.570312 C 4.878906 37.210938 5.335938 37.828125 5.828125 38.425781 C 6.316406 39.019531 6.832031 39.589844 7.375 40.132812 C 7.921875 40.679688 8.488281 41.195312 9.085938 41.683594 C 9.679688 42.171875 10.296875 42.628906 10.9375 43.058594 C 11.578125 43.484375 12.238281 43.882812 12.917969 44.246094 C 13.597656 44.605469 14.292969 44.9375 15.003906 45.230469 C 15.714844 45.527344 16.4375 45.785156 17.175781 46.007812 C 17.914062 46.230469 18.65625 46.417969 19.414062 46.570312 C 20.167969 46.71875 20.929688 46.832031 21.695312 46.90625 C 22.460938 46.984375 23.230469 47.019531 24 47.019531 C 24.769531 47.019531 25.539062 46.984375 26.304688 46.90625 C 27.070312 46.832031 27.832031 46.71875 28.585938 46.570312 C 29.34375 46.417969 30.085938 46.230469 30.824219 46.007812 C 31.5625 45.785156 32.285156 45.527344 32.996094 45.230469 C 33.707031 44.9375 34.402344 44.605469 35.082031 44.246094 C 35.761719 43.882812 36.421875 43.484375 37.0625 43.058594 C 37.703125 42.628906 38.320312 42.171875 38.914062 41.683594 C 39.511719 41.195312 40.078125 40.679688 40.625 40.132812 C 41.167969 39.589844 41.683594 39.019531 42.171875 38.425781 C 42.660156 37.828125 43.121094 37.210938 43.546875 36.570312 C 43.976562 35.929688 44.371094 35.273438 44.734375 34.59375 C 45.097656 33.914062 45.425781 33.21875 45.71875 32.507812 C 46.015625 31.796875 46.273438 31.070312 46.496094 30.335938 C 46.722656 29.597656 46.910156 28.851562 47.058594 28.097656 C 47.207031 27.339844 47.320312 26.582031 47.398438 25.816406 C 47.472656 25.046875 47.511719 24.28125 47.511719 23.511719 C 47.511719 22.742188 47.472656 21.972656 47.394531 21.207031 C 47.320312 20.441406 47.207031 19.679688 47.054688 18.925781 C 46.90625 18.167969 46.71875 17.421875 46.496094 16.6875 C 46.273438 15.949219 46.011719 15.226562 45.71875 14.515625 C 45.421875 13.804688 45.09375 13.109375 44.730469 12.429688 C 44.367188 11.75 43.972656 11.089844 43.542969 10.453125 C 43.117188 9.8125 42.660156 9.195312 42.171875 8.597656 C 41.683594 8.003906 41.164062 7.433594 40.621094 6.890625 C 40.078125 6.34375 39.507812 5.828125 38.910156 5.339844 C 38.316406 4.851562 37.699219 4.394531 37.058594 3.964844 C 36.417969 3.539062 35.757812 3.140625 35.082031 2.78125 C 34.402344 2.417969 33.707031 2.085938 32.996094 1.792969 C 32.285156 1.496094 31.558594 1.238281 30.824219 1.015625 C 30.085938 0.792969 29.339844 0.605469 28.585938 0.453125 C 27.832031 0.304688 27.070312 0.191406 26.304688 0.113281 C 25.539062 0.0390625 24.769531 0 24 0 Z M 24 45.398438 C 23.28125 45.398438 22.566406 45.363281 21.855469 45.292969 C 21.140625 45.222656 20.433594 45.117188 19.730469 44.976562 C 19.027344 44.839844 18.332031 44.664062 17.644531 44.457031 C 16.960938 44.25 16.285156 44.007812 15.625 43.734375 C 14.960938 43.457031 14.3125 43.152344 13.683594 42.8125 C 13.050781 42.476562 12.433594 42.109375 11.839844 41.710938 C 11.242188 41.3125 10.667969 40.886719 10.113281 40.429688 C 9.558594 39.976562 9.027344 39.496094 8.523438 38.988281 C 8.015625 38.480469 7.535156 37.949219 7.078125 37.394531 C 6.625 36.84375 6.199219 36.265625 5.800781 35.671875 C 5.402344 35.074219 5.035156 34.460938 4.695312 33.828125 C 4.359375 33.195312 4.050781 32.550781 3.777344 31.886719 C 3.503906 31.222656 3.261719 30.550781 3.054688 29.863281 C 2.84375 29.179688 2.671875 28.484375 2.53125 27.78125 C 2.390625 27.078125 2.285156 26.367188 2.214844 25.65625 C 2.144531 24.941406 2.109375 24.226562 2.109375 23.511719 C 2.109375 22.792969 2.144531 22.078125 2.214844 21.363281 C 2.285156 20.652344 2.390625 19.941406 2.53125 19.238281 C 2.671875 18.535156 2.84375 17.84375 3.054688 17.15625 C 3.261719 16.46875 3.503906 15.796875 3.777344 15.132812 C 4.050781 14.472656 4.359375 13.824219 4.695312 13.191406 C 5.035156 12.558594 5.402344 11.945312 5.800781 11.347656 C 6.199219 10.753906 6.625 10.179688 7.078125 9.625 C 7.535156 9.070312 8.015625 8.539062 8.523438 8.03125 C 9.027344 7.527344 9.558594 7.042969 10.113281 6.589844 C 10.667969 6.136719 11.242188 5.707031 11.839844 5.308594 C 12.433594 4.910156 13.050781 4.542969 13.683594 4.207031 C 14.3125 3.867188 14.960938 3.5625 15.625 3.289062 C 16.285156 3.011719 16.960938 2.773438 17.644531 2.5625 C 18.332031 2.355469 19.027344 2.183594 19.730469 2.042969 C 20.433594 1.902344 21.140625 1.796875 21.855469 1.726562 C 22.566406 1.65625 23.28125 1.621094 24 1.621094 C 24.71875 1.621094 25.433594 1.65625 26.144531 1.726562 C 26.859375 1.796875 27.566406 1.902344 28.269531 2.042969 C 28.972656 2.183594 29.667969 2.355469 30.355469 2.5625 C 31.039062 2.773438 31.714844 3.011719 32.375 3.289062 C 33.039062 3.5625 33.6875 3.867188 34.316406 4.207031 C 34.949219 4.542969 35.566406 4.910156 36.160156 5.308594 C 36.757812 5.707031 37.332031 6.136719 37.886719 6.589844 C 38.441406 7.042969 38.972656 7.527344 39.476562 8.03125 C 39.984375 8.539062 40.464844 9.070312 40.921875 9.625 C 41.375 10.179688 41.800781 10.753906 42.199219 11.347656 C 42.597656 11.945312 42.964844 12.558594 43.304688 13.191406 C 43.640625 13.824219 43.949219 14.472656 44.222656 15.132812 C 44.496094 15.796875 44.738281 16.46875 44.945312 17.15625 C 45.15625 17.84375 45.328125 18.535156 45.46875 19.238281 C 45.609375 19.941406 45.714844 20.652344 45.785156 21.363281 C 45.855469 22.078125 45.890625 22.792969 45.890625 23.511719 C 45.886719 24.226562 45.851562 24.941406 45.78125 25.65625 C 45.710938 26.367188 45.605469 27.078125 45.464844 27.78125 C 45.328125 28.484375 45.152344 29.175781 44.945312 29.863281 C 44.734375 30.550781 44.496094 31.222656 44.21875 31.886719 C 43.945312 32.546875 43.640625 33.195312 43.300781 33.828125 C 42.964844 34.457031 42.59375 35.074219 42.195312 35.667969 C 41.796875 36.265625 41.371094 36.839844 40.917969 37.394531 C 40.460938 37.949219 39.980469 38.476562 39.476562 38.984375 C 38.96875 39.492188 38.4375 39.972656 37.882812 40.425781 C 37.328125 40.882812 36.753906 41.308594 36.160156 41.707031 C 35.5625 42.105469 34.949219 42.472656 34.316406 42.8125 C 33.683594 43.148438 33.039062 43.457031 32.375 43.730469 C 31.710938 44.003906 31.039062 44.246094 30.351562 44.453125 C 29.667969 44.664062 28.972656 44.835938 28.269531 44.976562 C 27.566406 45.117188 26.859375 45.222656 26.144531 45.292969 C 25.433594 45.363281 24.71875 45.398438 24 45.398438 Z M 24 45.398438 "/></g><path style=" stroke:none;fill-rule:nonzero;fill:#4ca626;fill-opacity:1;" d="M 20.101562 19.457031 C 20.101562 19.628906 20.070312 19.792969 20.003906 19.953125 C 19.9375 20.109375 19.84375 20.25 19.722656 20.371094 C 19.601562 20.492188 19.460938 20.585938 19.304688 20.652344 C 19.144531 20.71875 18.980469 20.75 18.808594 20.75 C 18.636719 20.75 18.472656 20.71875 18.3125 20.652344 C 18.15625 20.585938 18.015625 20.492188 17.894531 20.371094 C 17.773438 20.25 17.679688 20.109375 17.613281 19.953125 C 17.546875 19.792969 17.515625 19.628906 17.515625 19.457031 C 17.515625 19.285156 17.546875 19.121094 17.613281 18.960938 C 17.679688 18.804688 17.773438 18.664062 17.894531 18.542969 C 18.015625 18.421875 18.15625 18.328125 18.3125 18.261719 C 18.472656 18.195312 18.636719 18.164062 18.808594 18.164062 C 18.980469 18.164062 19.144531 18.195312 19.304688 18.261719 C 19.460938 18.328125 19.601562 18.421875 19.722656 18.542969 C 19.84375 18.664062 19.9375 18.804688 20.003906 18.960938 C 20.070312 19.121094 20.101562 19.285156 20.101562 19.457031 Z M 20.101562 19.457031 "/><path style=" stroke:none;fill-rule:nonzero;fill:#4ca626;fill-opacity:1;" d="M 20.101562 24.320312 C 20.101562 24.492188 20.070312 24.65625 20.003906 24.816406 C 19.9375 24.972656 19.84375 25.113281 19.722656 25.234375 C 19.601562 25.355469 19.460938 25.449219 19.304688 25.515625 C 19.144531 25.582031 18.980469 25.613281 18.808594 25.613281 C 18.636719 25.613281 18.472656 25.582031 18.3125 25.515625 C 18.15625 25.449219 18.015625 25.355469 17.894531 25.234375 C 17.773438 25.113281 17.679688 24.972656 17.613281 24.816406 C 17.546875 24.65625 17.515625 24.492188 17.515625 24.320312 C 17.515625 24.148438 17.546875 23.984375 17.613281 23.824219 C 17.679688 23.667969 17.773438 23.527344 17.894531 23.40625 C 18.015625 23.285156 18.15625 23.191406 18.3125 23.125 C 18.472656 23.058594 18.636719 23.027344 18.808594 23.027344 C 18.980469 23.027344 19.144531 23.058594 19.304688 23.125 C 19.460938 23.191406 19.601562 23.285156 19.722656 23.40625 C 19.84375 23.527344 19.9375 23.667969 20.003906 23.824219 C 20.070312 23.984375 20.101562 24.148438 20.101562 24.320312 Z M 20.101562 24.320312 "/><path style=" stroke:none;fill-rule:nonzero;fill:#4ca626;fill-opacity:1;" d="M 20.101562 29.183594 C 20.101562 29.355469 20.070312 29.523438 20.003906 29.679688 C 19.9375 29.839844 19.84375 29.980469 19.722656 30.101562 C 19.601562 30.222656 19.460938 30.316406 19.304688 30.378906 C 19.144531 30.445312 18.980469 30.480469 18.808594 30.480469 C 18.636719 30.480469 18.472656 30.445312 18.3125 30.378906 C 18.15625 30.316406 18.015625 30.222656 17.894531 30.101562 C 17.773438 29.980469 17.679688 29.839844 17.613281 29.679688 C 17.546875 29.523438 17.515625 29.355469 17.515625 29.183594 C 17.515625 29.011719 17.546875 28.847656 17.613281 28.691406 C 17.679688 28.53125 17.773438 28.390625 17.894531 28.269531 C 18.015625 28.148438 18.15625 28.054688 18.3125 27.988281 C 18.472656 27.925781 18.636719 27.890625 18.808594 27.890625 C 18.980469 27.890625 19.144531 27.925781 19.304688 27.988281 C 19.460938 28.054688 19.601562 28.148438 19.722656 28.269531 C 19.84375 28.390625 19.9375 28.53125 20.003906 28.691406 C 20.070312 28.847656 20.101562 29.011719 20.101562 29.183594 Z M 20.101562 29.183594 "/><path style=" stroke:none;fill-rule:nonzero;fill:#4ca626;fill-opacity:1;" d="M 30.917969 11.140625 L 29.257812 11.140625 L 29.257812 10.839844 C 29.257812 10.585938 29.210938 10.339844 29.113281 10.105469 C 29.015625 9.871094 28.875 9.660156 28.695312 9.480469 C 28.515625 9.300781 28.308594 9.160156 28.070312 9.0625 C 27.835938 8.964844 27.589844 8.917969 27.335938 8.917969 L 20.664062 8.917969 C 20.410156 8.917969 20.164062 8.964844 19.929688 9.0625 C 19.691406 9.160156 19.484375 9.300781 19.304688 9.480469 C 19.125 9.660156 18.984375 9.871094 18.886719 10.105469 C 18.789062 10.339844 18.742188 10.585938 18.742188 10.839844 L 18.742188 11.140625 L 17.082031 11.140625 C 16.816406 11.125 16.554688 11.136719 16.292969 11.171875 C 16.03125 11.210938 15.777344 11.273438 15.527344 11.359375 C 15.277344 11.445312 15.039062 11.554688 14.808594 11.6875 C 14.582031 11.824219 14.367188 11.976562 14.171875 12.152344 C 13.972656 12.328125 13.792969 12.519531 13.632812 12.730469 C 13.472656 12.9375 13.335938 13.164062 13.21875 13.398438 C 13.101562 13.636719 13.011719 13.882812 12.941406 14.136719 C 12.875 14.394531 12.828125 14.652344 12.8125 14.917969 L 12.8125 32.707031 C 12.828125 32.96875 12.875 33.226562 12.941406 33.484375 C 13.011719 33.738281 13.101562 33.984375 13.21875 34.222656 C 13.335938 34.457031 13.472656 34.683594 13.632812 34.894531 C 13.792969 35.101562 13.972656 35.296875 14.171875 35.46875 C 14.367188 35.644531 14.582031 35.800781 14.808594 35.933594 C 15.039062 36.066406 15.277344 36.175781 15.527344 36.261719 C 15.777344 36.351562 16.03125 36.410156 16.292969 36.449219 C 16.554688 36.484375 16.816406 36.496094 17.082031 36.480469 L 30.917969 36.480469 C 31.183594 36.496094 31.445312 36.484375 31.707031 36.449219 C 31.96875 36.410156 32.222656 36.351562 32.472656 36.261719 C 32.722656 36.175781 32.960938 36.066406 33.191406 35.933594 C 33.417969 35.800781 33.632812 35.644531 33.828125 35.46875 C 34.027344 35.296875 34.207031 35.101562 34.367188 34.894531 C 34.527344 34.683594 34.664062 34.457031 34.78125 34.222656 C 34.898438 33.984375 34.988281 33.738281 35.058594 33.484375 C 35.125 33.226562 35.171875 32.96875 35.1875 32.707031 L 35.1875 14.917969 C 35.171875 14.652344 35.125 14.394531 35.058594 14.136719 C 34.988281 13.882812 34.898438 13.636719 34.78125 13.398438 C 34.664062 13.164062 34.527344 12.9375 34.367188 12.730469 C 34.207031 12.519531 34.027344 12.328125 33.828125 12.152344 C 33.632812 11.976562 33.417969 11.824219 33.191406 11.6875 C 32.960938 11.554688 32.722656 11.445312 32.472656 11.359375 C 32.222656 11.273438 31.96875 11.210938 31.707031 11.171875 C 31.445312 11.136719 31.183594 11.125 30.917969 11.140625 Z M 20.363281 10.839844 C 20.363281 10.757812 20.394531 10.6875 20.453125 10.628906 C 20.511719 10.570312 20.582031 10.539062 20.664062 10.539062 L 27.335938 10.539062 C 27.417969 10.539062 27.488281 10.570312 27.546875 10.628906 C 27.605469 10.6875 27.636719 10.757812 27.636719 10.839844 L 27.636719 13.0625 C 27.636719 13.148438 27.605469 13.21875 27.546875 13.277344 C 27.488281 13.335938 27.417969 13.363281 27.335938 13.363281 L 20.664062 13.363281 C 20.582031 13.363281 20.511719 13.335938 20.453125 13.277344 C 20.394531 13.21875 20.363281 13.148438 20.363281 13.0625 Z M 33.566406 32.707031 C 33.53125 33.023438 33.4375 33.320312 33.285156 33.601562 C 33.132812 33.882812 32.933594 34.125 32.683594 34.324219 C 32.4375 34.527344 32.160156 34.675781 31.855469 34.765625 C 31.546875 34.859375 31.238281 34.890625 30.917969 34.859375 L 17.082031 34.859375 C 16.761719 34.890625 16.453125 34.859375 16.144531 34.765625 C 15.839844 34.671875 15.5625 34.527344 15.316406 34.324219 C 15.066406 34.125 14.867188 33.882812 14.714844 33.601562 C 14.5625 33.320312 14.46875 33.023438 14.433594 32.707031 L 14.433594 14.917969 C 14.46875 14.597656 14.5625 14.300781 14.714844 14.019531 C 14.867188 13.738281 15.066406 13.5 15.316406 13.296875 C 15.5625 13.09375 15.839844 12.949219 16.144531 12.855469 C 16.453125 12.761719 16.761719 12.730469 17.082031 12.761719 L 18.742188 12.761719 L 18.742188 13.0625 C 18.742188 13.320312 18.789062 13.5625 18.886719 13.800781 C 18.984375 14.035156 19.125 14.242188 19.304688 14.421875 C 19.484375 14.605469 19.691406 14.742188 19.929688 14.839844 C 20.164062 14.9375 20.410156 14.988281 20.664062 14.988281 L 27.335938 14.988281 C 27.589844 14.988281 27.835938 14.9375 28.070312 14.839844 C 28.308594 14.742188 28.515625 14.605469 28.695312 14.421875 C 28.875 14.242188 29.015625 14.035156 29.113281 13.800781 C 29.210938 13.5625 29.257812 13.320312 29.257812 13.0625 L 29.257812 12.761719 L 30.917969 12.761719 C 31.238281 12.730469 31.546875 12.761719 31.855469 12.855469 C 32.160156 12.949219 32.4375 13.09375 32.683594 13.296875 C 32.933594 13.5 33.132812 13.738281 33.285156 14.019531 C 33.4375 14.300781 33.53125 14.597656 33.566406 14.917969 Z M 33.566406 32.707031 "/><path style=" stroke:none;fill-rule:nonzero;fill:#4ca626;fill-opacity:1;" d="M 30.484375 18.644531 L 22.378906 18.644531 C 22.15625 18.644531 21.964844 18.726562 21.804688 18.882812 C 21.648438 19.042969 21.566406 19.234375 21.566406 19.457031 C 21.566406 19.679688 21.648438 19.871094 21.804688 20.03125 C 21.964844 20.1875 22.15625 20.265625 22.378906 20.265625 L 30.484375 20.265625 C 30.710938 20.265625 30.902344 20.1875 31.058594 20.03125 C 31.21875 19.871094 31.296875 19.679688 31.296875 19.457031 C 31.296875 19.234375 31.21875 19.042969 31.058594 18.882812 C 30.902344 18.726562 30.710938 18.644531 30.484375 18.644531 Z M 30.484375 18.644531 "/><path style=" stroke:none;fill-rule:nonzero;fill:#4ca626;fill-opacity:1;" d="M 30.484375 23.511719 L 22.378906 23.511719 C 22.15625 23.511719 21.964844 23.589844 21.804688 23.746094 C 21.648438 23.90625 21.566406 24.097656 21.566406 24.320312 C 21.566406 24.542969 21.648438 24.734375 21.804688 24.894531 C 21.964844 25.050781 22.15625 25.132812 22.378906 25.132812 L 30.484375 25.132812 C 30.710938 25.132812 30.902344 25.050781 31.058594 24.894531 C 31.21875 24.734375 31.296875 24.542969 31.296875 24.320312 C 31.296875 24.097656 31.21875 23.90625 31.058594 23.746094 C 30.902344 23.589844 30.710938 23.511719 30.484375 23.511719 Z M 30.484375 23.511719 "/><path style=" stroke:none;fill-rule:nonzero;fill:#4ca626;fill-opacity:1;" d="M 30.484375 28.375 L 22.378906 28.375 C 22.15625 28.375 21.964844 28.453125 21.804688 28.613281 C 21.648438 28.769531 21.566406 28.960938 21.566406 29.183594 C 21.566406 29.410156 21.648438 29.601562 21.804688 29.757812 C 21.964844 29.917969 22.15625 29.996094 22.378906 29.996094 L 30.484375 29.996094 C 30.710938 29.996094 30.902344 29.917969 31.058594 29.757812 C 31.21875 29.601562 31.296875 29.410156 31.296875 29.183594 C 31.296875 28.960938 31.21875 28.769531 31.058594 28.613281 C 30.902344 28.453125 30.710938 28.375 30.484375 28.375 Z M 30.484375 28.375 "/></g></svg>